<svg width="310" height="92" viewBox="0 0 310 92" fill="none" xmlns="http://www.w3.org/2000/svg">
<g filter="url(#filter0_dd_4411_1687)">
<rect x="16" y="12" width="278" height="60" rx="8" fill="url(#paint0_linear_4411_1687)"/>
<rect x="16.5" y="12.5" width="277" height="59" rx="7.5" stroke="url(#paint1_linear_4411_1687)"/>
<path d="M65.2642 49V34.4545H71.0881C72.1581 34.4545 73.0507 34.6132 73.7656 34.9304C74.4806 35.2476 75.018 35.688 75.3778 36.2514C75.7377 36.8101 75.9176 37.4541 75.9176 38.1832C75.9176 38.7514 75.804 39.2509 75.5767 39.6818C75.3494 40.108 75.0369 40.4583 74.6392 40.733C74.2462 41.0028 73.7964 41.1946 73.2898 41.3082V41.4503C73.8438 41.474 74.3622 41.6302 74.8452 41.919C75.3329 42.2079 75.7282 42.6127 76.0312 43.1335C76.3343 43.6496 76.4858 44.2652 76.4858 44.9801C76.4858 45.7519 76.294 46.4408 75.9105 47.0469C75.5317 47.6482 74.9706 48.1241 74.2273 48.4744C73.4839 48.8248 72.5677 49 71.4787 49H65.2642ZM68.3395 46.4858H70.8466C71.7036 46.4858 72.3286 46.3224 72.7216 45.9957C73.1146 45.6643 73.3111 45.224 73.3111 44.6747C73.3111 44.2723 73.214 43.9171 73.0199 43.6094C72.8258 43.3016 72.5488 43.0601 72.1889 42.8849C71.8338 42.7098 71.41 42.6222 70.9176 42.6222H68.3395V46.4858ZM68.3395 40.5412H70.6193C71.0407 40.5412 71.4148 40.4678 71.7415 40.321C72.0729 40.1695 72.3333 39.9564 72.5227 39.6818C72.7169 39.4072 72.8139 39.0781 72.8139 38.6946C72.8139 38.169 72.6269 37.7453 72.2528 37.4233C71.8835 37.1013 71.358 36.9403 70.6761 36.9403H68.3395V40.5412ZM83.359 49.2131C82.2558 49.2131 81.3017 48.9787 80.4968 48.5099C79.6966 48.0365 79.0787 47.3783 78.6431 46.5355C78.2075 45.688 77.9897 44.7055 77.9897 43.5881C77.9897 42.4612 78.2075 41.4763 78.6431 40.6335C79.0787 39.786 79.6966 39.1278 80.4968 38.6591C81.3017 38.1856 82.2558 37.9489 83.359 37.9489C84.4622 37.9489 85.4139 38.1856 86.2141 38.6591C87.0191 39.1278 87.6393 39.786 88.0749 40.6335C88.5105 41.4763 88.7283 42.4612 88.7283 43.5881C88.7283 44.7055 88.5105 45.688 88.0749 46.5355C87.6393 47.3783 87.0191 48.0365 86.2141 48.5099C85.4139 48.9787 84.4622 49.2131 83.359 49.2131ZM83.3732 46.8693C83.8751 46.8693 84.2942 46.7273 84.6303 46.4432C84.9665 46.1544 85.2198 45.7614 85.3903 45.2642C85.5655 44.767 85.6531 44.2012 85.6531 43.5668C85.6531 42.9323 85.5655 42.3665 85.3903 41.8693C85.2198 41.3722 84.9665 40.9792 84.6303 40.6903C84.2942 40.4015 83.8751 40.2571 83.3732 40.2571C82.8666 40.2571 82.4405 40.4015 82.0948 40.6903C81.7539 40.9792 81.4959 41.3722 81.3207 41.8693C81.1502 42.3665 81.065 42.9323 81.065 43.5668C81.065 44.2012 81.1502 44.767 81.3207 45.2642C81.4959 45.7614 81.7539 46.1544 82.0948 46.4432C82.4405 46.7273 82.8666 46.8693 83.3732 46.8693ZM95.6246 49.2131C94.5214 49.2131 93.5674 48.9787 92.7624 48.5099C91.9622 48.0365 91.3443 47.3783 90.9087 46.5355C90.4731 45.688 90.2553 44.7055 90.2553 43.5881C90.2553 42.4612 90.4731 41.4763 90.9087 40.6335C91.3443 39.786 91.9622 39.1278 92.7624 38.6591C93.5674 38.1856 94.5214 37.9489 95.6246 37.9489C96.7279 37.9489 97.6796 38.1856 98.4798 38.6591C99.2847 39.1278 99.9049 39.786 100.341 40.6335C100.776 41.4763 100.994 42.4612 100.994 43.5881C100.994 44.7055 100.776 45.688 100.341 46.5355C99.9049 47.3783 99.2847 48.0365 98.4798 48.5099C97.6796 48.9787 96.7279 49.2131 95.6246 49.2131ZM95.6388 46.8693C96.1407 46.8693 96.5598 46.7273 96.896 46.4432C97.2321 46.1544 97.4854 45.7614 97.6559 45.2642C97.8311 44.767 97.9187 44.2012 97.9187 43.5668C97.9187 42.9323 97.8311 42.3665 97.6559 41.8693C97.4854 41.3722 97.2321 40.9792 96.896 40.6903C96.5598 40.4015 96.1407 40.2571 95.6388 40.2571C95.1322 40.2571 94.7061 40.4015 94.3604 40.6903C94.0195 40.9792 93.7615 41.3722 93.5863 41.8693C93.4158 42.3665 93.3306 42.9323 93.3306 43.5668C93.3306 44.2012 93.4158 44.767 93.5863 45.2642C93.7615 45.7614 94.0195 46.1544 94.3604 46.4432C94.7061 46.7273 95.1322 46.8693 95.6388 46.8693ZM105.703 45.8608L105.71 42.2315H106.15L109.645 38.0909H113.118L108.423 43.5739H107.706L105.703 45.8608ZM102.961 49V34.4545H105.987V49H102.961ZM109.779 49L106.569 44.2486L108.586 42.1108L113.324 49H109.779ZM119.202 49V46.7841L124.38 41.9901C124.82 41.5639 125.19 41.1804 125.488 40.8395C125.791 40.4986 126.021 40.1648 126.177 39.8381C126.333 39.5066 126.411 39.1491 126.411 38.7656C126.411 38.3395 126.314 37.9725 126.12 37.6648C125.926 37.3523 125.661 37.1132 125.325 36.9474C124.988 36.777 124.607 36.6918 124.181 36.6918C123.736 36.6918 123.348 36.7817 123.016 36.9616C122.685 37.1416 122.429 37.3996 122.249 37.7358C122.069 38.072 121.979 38.4721 121.979 38.9361H119.06C119.06 37.9844 119.276 37.1581 119.707 36.4574C120.138 35.7566 120.741 35.2145 121.518 34.831C122.294 34.4474 123.189 34.2557 124.202 34.2557C125.244 34.2557 126.151 34.4403 126.923 34.8097C127.699 35.1742 128.303 35.6809 128.734 36.3295C129.165 36.9782 129.38 37.7216 129.38 38.5597C129.38 39.1089 129.271 39.651 129.053 40.1861C128.84 40.7211 128.459 41.3153 127.91 41.9688C127.361 42.6174 126.586 43.3963 125.587 44.3054L123.464 46.3864V46.4858H129.572V49H119.202ZM141.67 49H136.514V34.4545H141.713C143.176 34.4545 144.436 34.7457 145.491 35.3281C146.547 35.9058 147.359 36.7367 147.928 37.821C148.5 38.9053 148.787 40.2027 148.787 41.7131C148.787 43.2282 148.5 44.5303 147.928 45.6193C147.359 46.7083 146.543 47.544 145.477 48.1264C144.417 48.7088 143.148 49 141.67 49ZM139.589 46.3651H141.543C142.452 46.3651 143.216 46.2041 143.837 45.8821C144.462 45.5554 144.93 45.0511 145.243 44.3693C145.56 43.6828 145.719 42.7973 145.719 41.7131C145.719 40.6383 145.56 39.7599 145.243 39.0781C144.93 38.3963 144.464 37.8944 143.844 37.5724C143.223 37.2505 142.459 37.0895 141.55 37.0895H139.589V46.3651ZM154.119 49.206C153.423 49.206 152.803 49.0852 152.258 48.8438C151.714 48.5975 151.283 48.2353 150.966 47.7571C150.653 47.2741 150.497 46.6728 150.497 45.9531C150.497 45.3471 150.608 44.8381 150.831 44.4261C151.053 44.0142 151.356 43.6828 151.74 43.4318C152.123 43.1809 152.559 42.9915 153.047 42.8636C153.539 42.7358 154.055 42.6458 154.595 42.5938C155.229 42.5275 155.741 42.4659 156.129 42.4091C156.517 42.3475 156.799 42.2576 156.974 42.1392C157.149 42.0208 157.237 41.8456 157.237 41.6136V41.571C157.237 41.1212 157.095 40.7732 156.811 40.527C156.531 40.2808 156.134 40.1577 155.618 40.1577C155.073 40.1577 154.64 40.2784 154.318 40.5199C153.996 40.7566 153.783 41.0549 153.679 41.4148L150.88 41.1875C151.022 40.5246 151.302 39.9517 151.718 39.4688C152.135 38.9811 152.672 38.607 153.331 38.3466C153.993 38.0814 154.761 37.9489 155.632 37.9489C156.238 37.9489 156.818 38.0199 157.372 38.1619C157.931 38.304 158.425 38.5241 158.856 38.8224C159.292 39.1207 159.635 39.5043 159.886 39.973C160.137 40.437 160.262 40.9934 160.262 41.642V49H157.393V47.4872H157.308C157.133 47.8281 156.898 48.1288 156.605 48.3892C156.311 48.6449 155.958 48.8461 155.547 48.9929C155.135 49.1349 154.659 49.206 154.119 49.206ZM154.985 47.1179C155.431 47.1179 155.824 47.0303 156.164 46.8551C156.505 46.6752 156.773 46.4337 156.967 46.1307C157.161 45.8277 157.258 45.4844 157.258 45.1009V43.9432C157.163 44.0047 157.033 44.0616 156.868 44.1136C156.707 44.161 156.524 44.206 156.321 44.2486C156.117 44.2865 155.913 44.322 155.71 44.3551C155.506 44.3835 155.322 44.4096 155.156 44.4332C154.801 44.4853 154.491 44.5682 154.225 44.6818C153.96 44.7955 153.754 44.9493 153.608 45.1435C153.461 45.3329 153.387 45.5696 153.387 45.8537C153.387 46.2656 153.537 46.5805 153.835 46.7983C154.138 47.0114 154.521 47.1179 154.985 47.1179ZM164.087 53.0909C163.703 53.0909 163.344 53.0601 163.007 52.9986C162.676 52.9418 162.401 52.8684 162.184 52.7784L162.865 50.5199C163.221 50.6288 163.54 50.688 163.824 50.6974C164.113 50.7069 164.362 50.6406 164.57 50.4986C164.783 50.3565 164.956 50.1151 165.088 49.7741L165.266 49.3125L161.353 38.0909H164.534L166.793 46.1023H166.907L169.186 38.0909H172.39L168.15 50.179C167.946 50.7661 167.669 51.2775 167.319 51.7131C166.973 52.1534 166.535 52.492 166.005 52.7287C165.474 52.9702 164.835 53.0909 164.087 53.0909ZM183.015 41.2017L180.245 41.3722C180.197 41.1354 180.096 40.9223 179.939 40.733C179.783 40.5388 179.577 40.3849 179.321 40.2713C179.07 40.1529 178.77 40.0938 178.419 40.0938C177.951 40.0938 177.555 40.1932 177.233 40.392C176.911 40.5862 176.75 40.8466 176.75 41.1733C176.75 41.4337 176.855 41.6539 177.063 41.8338C177.271 42.0137 177.629 42.1581 178.135 42.267L180.11 42.6648C181.17 42.8826 181.961 43.233 182.482 43.7159C183.003 44.1989 183.263 44.8333 183.263 45.6193C183.263 46.3343 183.052 46.9616 182.631 47.5014C182.214 48.0412 181.641 48.4626 180.912 48.7656C180.188 49.0639 179.352 49.2131 178.405 49.2131C176.961 49.2131 175.81 48.9124 174.953 48.3111C174.101 47.705 173.602 46.8812 173.455 45.8395L176.431 45.6832C176.521 46.1236 176.739 46.4598 177.084 46.6918C177.43 46.919 177.873 47.0327 178.412 47.0327C178.943 47.0327 179.369 46.9309 179.691 46.7273C180.017 46.5189 180.183 46.2514 180.188 45.9247C180.183 45.6501 180.067 45.4252 179.84 45.25C179.613 45.0701 179.262 44.9328 178.789 44.8381L176.9 44.4616C175.834 44.2486 175.041 43.8793 174.52 43.3537C174.004 42.8281 173.746 42.1581 173.746 41.3438C173.746 40.643 173.935 40.0393 174.314 39.5327C174.698 39.026 175.235 38.6354 175.926 38.3608C176.623 38.0862 177.437 37.9489 178.37 37.9489C179.748 37.9489 180.832 38.2401 181.623 38.8224C182.418 39.4048 182.882 40.1979 183.015 41.2017ZM195.01 49H189.854V34.4545H195.053C196.516 34.4545 197.775 34.7457 198.831 35.3281C199.887 35.9058 200.699 36.7367 201.267 37.821C201.84 38.9053 202.127 40.2027 202.127 41.7131C202.127 43.2282 201.84 44.5303 201.267 45.6193C200.699 46.7083 199.882 47.544 198.817 48.1264C197.757 48.7088 196.488 49 195.01 49ZM192.929 46.3651H194.882C195.792 46.3651 196.556 46.2041 197.176 45.8821C197.801 45.5554 198.27 45.0511 198.583 44.3693C198.9 43.6828 199.059 42.7973 199.059 41.7131C199.059 40.6383 198.9 39.7599 198.583 39.0781C198.27 38.3963 197.804 37.8944 197.184 37.5724C196.563 37.2505 195.799 37.0895 194.89 37.0895H192.929V46.3651ZM209.32 49.2131C208.197 49.2131 207.232 48.9858 206.422 48.5312C205.617 48.072 204.997 47.4233 204.561 46.5852C204.125 45.7424 203.908 44.7457 203.908 43.5952C203.908 42.473 204.125 41.4882 204.561 40.6406C204.997 39.7931 205.61 39.1326 206.401 38.6591C207.196 38.1856 208.129 37.9489 209.199 37.9489C209.919 37.9489 210.589 38.0649 211.209 38.2969C211.834 38.5241 212.378 38.8674 212.842 39.3267C213.311 39.786 213.676 40.3636 213.936 41.0597C214.196 41.7509 214.327 42.5606 214.327 43.4886V44.3196H205.115V42.4446H211.479C211.479 42.009 211.384 41.6231 211.195 41.2869C211.005 40.9508 210.742 40.688 210.406 40.4986C210.075 40.3045 209.689 40.2074 209.249 40.2074C208.789 40.2074 208.382 40.3139 208.027 40.527C207.677 40.7353 207.402 41.017 207.203 41.3722C207.004 41.7225 206.902 42.1132 206.898 42.544V44.3267C206.898 44.8665 206.997 45.3329 207.196 45.7259C207.4 46.1188 207.686 46.4219 208.055 46.6349C208.425 46.848 208.863 46.9545 209.369 46.9545C209.705 46.9545 210.013 46.9072 210.293 46.8125C210.572 46.7178 210.811 46.5758 211.01 46.3864C211.209 46.197 211.36 45.965 211.464 45.6903L214.263 45.875C214.121 46.5473 213.83 47.1345 213.389 47.6364C212.954 48.1335 212.39 48.5218 211.699 48.8011C211.012 49.0758 210.219 49.2131 209.32 49.2131ZM216.301 49V38.0909H219.185V40.0156H219.312C219.54 39.3764 219.919 38.8722 220.449 38.5028C220.979 38.1335 221.614 37.9489 222.352 37.9489C223.1 37.9489 223.737 38.1359 224.263 38.5099C224.788 38.8793 225.139 39.3812 225.314 40.0156H225.428C225.65 39.3906 226.053 38.8911 226.635 38.517C227.222 38.1383 227.916 37.9489 228.716 37.9489C229.734 37.9489 230.56 38.2732 231.195 38.9219C231.834 39.5658 232.153 40.4796 232.153 41.6634V49H229.135V42.2599C229.135 41.6539 228.974 41.1993 228.652 40.8963C228.33 40.5933 227.928 40.4418 227.445 40.4418C226.895 40.4418 226.467 40.617 226.159 40.9673C225.851 41.313 225.697 41.7699 225.697 42.3381V49H222.764V42.196C222.764 41.661 222.61 41.2348 222.303 40.9176C222 40.6004 221.599 40.4418 221.102 40.4418C220.766 40.4418 220.463 40.527 220.193 40.6974C219.928 40.8632 219.717 41.0975 219.561 41.4006C219.405 41.6989 219.327 42.0492 219.327 42.4517V49H216.301ZM239.472 49.2131C238.369 49.2131 237.415 48.9787 236.61 48.5099C235.81 48.0365 235.192 47.3783 234.756 46.5355C234.321 45.688 234.103 44.7055 234.103 43.5881C234.103 42.4612 234.321 41.4763 234.756 40.6335C235.192 39.786 235.81 39.1278 236.61 38.6591C237.415 38.1856 238.369 37.9489 239.472 37.9489C240.576 37.9489 241.527 38.1856 242.327 38.6591C243.132 39.1278 243.753 39.786 244.188 40.6335C244.624 41.4763 244.842 42.4612 244.842 43.5881C244.842 44.7055 244.624 45.688 244.188 46.5355C243.753 47.3783 243.132 48.0365 242.327 48.5099C241.527 48.9787 240.576 49.2131 239.472 49.2131ZM239.487 46.8693C239.988 46.8693 240.407 46.7273 240.744 46.4432C241.08 46.1544 241.333 45.7614 241.504 45.2642C241.679 44.767 241.766 44.2012 241.766 43.5668C241.766 42.9323 241.679 42.3665 241.504 41.8693C241.333 41.3722 241.08 40.9792 240.744 40.6903C240.407 40.4015 239.988 40.2571 239.487 40.2571C238.98 40.2571 238.554 40.4015 238.208 40.6903C237.867 40.9792 237.609 41.3722 237.434 41.8693C237.263 42.3665 237.178 42.9323 237.178 43.5668C237.178 44.2012 237.263 44.767 237.434 45.2642C237.609 45.7614 237.867 46.1544 238.208 46.4432C238.554 46.7273 238.98 46.8693 239.487 46.8693Z" fill="white"/>
</g>
<defs>
<filter id="filter0_dd_4411_1687" x="0" y="0" width="310" height="92" filterUnits="userSpaceOnUse" color-interpolation-filters="sRGB">
<feFlood flood-opacity="0" result="BackgroundImageFix"/>
<feColorMatrix in="SourceAlpha" type="matrix" values="0 0 0 0 0 0 0 0 0 0 0 0 0 0 0 0 0 0 127 0" result="hardAlpha"/>
<feOffset dy="1"/>
<feGaussianBlur stdDeviation="1"/>
<feColorMatrix type="matrix" values="0 0 0 0 0.0627451 0 0 0 0 0.0941176 0 0 0 0 0.156863 0 0 0 0.05 0"/>
<feBlend mode="normal" in2="BackgroundImageFix" result="effect1_dropShadow_4411_1687"/>
<feColorMatrix in="SourceAlpha" type="matrix" values="0 0 0 0 0 0 0 0 0 0 0 0 0 0 0 0 0 0 127 0" result="hardAlpha"/>
<feMorphology radius="2" operator="dilate" in="SourceAlpha" result="effect2_dropShadow_4411_1687"/>
<feOffset dy="4"/>
<feGaussianBlur stdDeviation="7"/>
<feComposite in2="hardAlpha" operator="out"/>
<feColorMatrix type="matrix" values="0 0 0 0 0.14902 0 0 0 0 0.6 0 0 0 0 0.984314 0 0 0 0.38 0"/>
<feBlend mode="normal" in2="effect1_dropShadow_4411_1687" result="effect2_dropShadow_4411_1687"/>
<feBlend mode="normal" in="SourceGraphic" in2="effect2_dropShadow_4411_1687" result="shape"/>
</filter>
<linearGradient id="paint0_linear_4411_1687" x1="-2.84746" y1="12" x2="150.373" y2="58.7353" gradientUnits="userSpaceOnUse">
<stop stop-color="#0ACEFE"/>
<stop offset="1" stop-color="#2699FB"/>
</linearGradient>
<linearGradient id="paint1_linear_4411_1687" x1="-2.84746" y1="12" x2="150.373" y2="58.7353" gradientUnits="userSpaceOnUse">
<stop stop-color="#0ACEFE"/>
<stop offset="1" stop-color="#2699FB"/>
</linearGradient>
</defs>
</svg>
